<?xml version="1.0" encoding="utf-8"?>
<!-- Generator: Adobe Illustrator 21.1.0, SVG Export Plug-In . SVG Version: 6.00 Build 0)  -->
<svg version="1.1" id="Слой_1" xmlns="http://www.w3.org/2000/svg" xmlns:xlink="http://www.w3.org/1999/xlink" x="0px" y="0px"
	 viewBox="0 0 512 512" style="enable-background:new 0 0 512 512;" xml:space="preserve">
<style type="text/css">
	.st0{fill:#444444;}
</style>
<path class="st0" d="M433,27H80c-19.3,0-35,15.8-35,35v389c0,19.3,15.8,35,35,35h353c19.3,0,35-15.8,35-35V62
	C468,42.8,452.3,27,433,27z M448,451c0,8.3-6.7,15-15,15H80c-8.3,0-15-6.7-15-15V62c0-8.3,6.7-15,15-15h353c8.3,0,15,6.7,15,15V451z
	"/>
<path class="st0" d="M414.5,154H98.5c-12.1,0-22-9.9-22-22V84c0-12.1,9.9-22,22-22h316.1c12.1,0,22,9.9,22,22v48
	C436.5,144.1,426.7,154,414.5,154z M98.5,82c-1.1,0-2,0.9-2,2v48c0,1.1,0.9,2,2,2h316.1c1.1,0,2-0.9,2-2V84c0-1.1-0.9-2-2-2H98.5z"
	/>
<path class="st0" d="M223.8,253h-34.1c-12.1,0-22-9.9-22-22v-39c0-12.1,9.9-22,22-22h34.1c12.1,0,22,9.9,22,22v39
	C245.8,243.1,235.9,253,223.8,253z M189.7,190c-1.1,0-2,0.9-2,2v39c0,1.1,0.9,2,2,2h34.1c1.1,0,2-0.9,2-2v-39c0-1.1-0.9-2-2-2H189.7
	z"/>
<path class="st0" d="M315,253h-34.1c-12.1,0-22-9.9-22-22v-39c0-12.1,9.9-22,22-22H315c12.1,0,22,9.9,22,22v39
	C337,243.1,327.1,253,315,253z M280.9,190c-1.1,0-2,0.9-2,2v39c0,1.1,0.9,2,2,2H315c1.1,0,2-0.9,2-2v-39c0-1.1-0.9-2-2-2H280.9z"/>
<path class="st0" d="M315,352h-34.1c-12.1,0-22-9.9-22-22v-39c0-12.1,9.9-22,22-22H315c12.1,0,22,9.9,22,22v39
	C337,342.1,327.1,352,315,352z M280.9,289c-1.1,0-2,0.9-2,2v39c0,1.1,0.9,2,2,2H315c1.1,0,2-0.9,2-2v-39c0-1.1-0.9-2-2-2H280.9z"/>
<path class="st0" d="M315,451h-34.1c-12.1,0-22-9.9-22-22v-39c0-12.1,9.9-22,22-22H315c12.1,0,22,9.9,22,22v39
	C337,441.1,327.1,451,315,451z M280.9,388c-1.1,0-2,0.9-2,2v39c0,1.1,0.9,2,2,2H315c1.1,0,2-0.9,2-2v-39c0-1.1-0.9-2-2-2H280.9z"/>
<g>
	<path class="st0" d="M436.5,192v39c0,12.1-9.9,22-22,22h-42.4c-12.1,0-22-9.9-22-22v-39c0-12.1,9.9-22,22-22h42.4
		C426.7,170,436.5,179.9,436.5,192z"/>
</g>
<g>
	<path class="st0" d="M436.5,291v39c0,12.1-9.9,22-22,22h-42.4c-12.1,0-22-9.9-22-22v-39c0-12.1,9.9-22,22-22h42.4
		C426.7,269,436.5,278.9,436.5,291z"/>
</g>
<g>
	<path class="st0" d="M436.5,390v39c0,12.1-9.9,22-22,22h-42.4c-12.1,0-22-9.9-22-22v-39c0-12.1,9.9-22,22-22h42.4
		C426.7,368,436.5,377.9,436.5,390z"/>
</g>
<path class="st0" d="M223.8,352h-34.1c-12.1,0-22-9.9-22-22v-39c0-12.1,9.9-22,22-22h34.1c12.1,0,22,9.9,22,22v39
	C245.8,342.1,235.9,352,223.8,352z M189.7,289c-1.1,0-2,0.9-2,2v39c0,1.1,0.9,2,2,2h34.1c1.1,0,2-0.9,2-2v-39c0-1.1-0.9-2-2-2H189.7
	z"/>
<path class="st0" d="M223.8,451h-34.1c-12.1,0-22-9.9-22-22v-39c0-12.1,9.9-22,22-22h34.1c12.1,0,22,9.9,22,22v39
	C245.8,441.1,235.9,451,223.8,451z M189.7,388c-1.1,0-2,0.9-2,2v39c0,1.1,0.9,2,2,2h34.1c1.1,0,2-0.9,2-2v-39c0-1.1-0.9-2-2-2H189.7
	z"/>
<path class="st0" d="M132.5,253H98.5c-12.1,0-22-9.9-22-22v-39c0-12.1,9.9-22,22-22h34.1c12.1,0,22,9.9,22,22v39
	C154.5,243.1,144.7,253,132.5,253z M98.5,190c-1.1,0-2,0.9-2,2v39c0,1.1,0.9,2,2,2h34.1c1.1,0,2-0.9,2-2v-39c0-1.1-0.9-2-2-2H98.5z"
	/>
<path class="st0" d="M132.5,352H98.5c-12.1,0-22-9.9-22-22v-39c0-12.1,9.9-22,22-22h34.1c12.1,0,22,9.9,22,22v39
	C154.5,342.1,144.7,352,132.5,352z M98.5,289c-1.1,0-2,0.9-2,2v39c0,1.1,0.9,2,2,2h34.1c1.1,0,2-0.9,2-2v-39c0-1.1-0.9-2-2-2H98.5z"
	/>
<path class="st0" d="M132.5,451H98.5c-12.1,0-22-9.9-22-22v-39c0-12.1,9.9-22,22-22h34.1c12.1,0,22,9.9,22,22v39
	C154.5,441.1,144.7,451,132.5,451z M98.5,388c-1.1,0-2,0.9-2,2v39c0,1.1,0.9,2,2,2h34.1c1.1,0,2-0.9,2-2v-39c0-1.1-0.9-2-2-2H98.5z"
	/>
</svg>
