<?xml version="1.0" encoding="utf-8"?>
<!-- Generator: Adobe Illustrator 21.1.0, SVG Export Plug-In . SVG Version: 6.00 Build 0)  -->
<svg version="1.1" id="Слой_1" xmlns="http://www.w3.org/2000/svg" xmlns:xlink="http://www.w3.org/1999/xlink" x="0px" y="0px"
	 viewBox="0 0 512 512" style="enable-background:new 0 0 512 512;" xml:space="preserve">
<style type="text/css">
	.st0{fill:#444444;}
</style>
<path class="st0" d="M442.9,111.1l-86.5-79.9C347.1,22.7,335,18,322.5,18H95c-27.6,0-50,22.4-50,50v377c0,27.6,22.4,50,50,50h314
	c27.6,0,50-22.4,50-50V147.9C459,133.9,453.2,120.6,442.9,111.1z M439,445c0,16.5-13.5,30-30,30H95c-16.5,0-30-13.5-30-30V68
	c0-16.5,13.5-30,30-30h227.5c7.6,0,14.8,2.8,20.3,8l86.5,79.9c6.1,5.7,9.7,13.7,9.7,22V445z"/>
<path class="st0" d="M414,181h-78c-22.1,0-40-17.9-40-40V63h20v78c0,11,9,20,20,20h78V181z"/>
<path class="st0" d="M378,287H234.3c-4.1-30.6-26.9-54-54.3-54c-30.3,0-55,28.7-55,64c0,35.3,24.7,64,55,64
	c27.4,0,50.2-23.4,54.3-54H323v31.7c0,1.8,0.9,3.3,2,3.3h16c1.1,0,2-1.5,2-3.3V307h35c5.5,0,10-4.5,10-10
	C388,291.5,383.5,287,378,287z M180,341c-19.3,0-35-19.7-35-44s15.7-44,35-44s35,19.7,35,44S199.3,341,180,341z"/>
</svg>
