<?xml version="1.0" encoding="utf-8"?>
<!-- Generator: Adobe Illustrator 21.0.1, SVG Export Plug-In . SVG Version: 6.00 Build 0)  -->
<svg version="1.1" id="Слой_1" xmlns="http://www.w3.org/2000/svg" xmlns:xlink="http://www.w3.org/1999/xlink" x="0px" y="0px"
	 viewBox="0 0 512 512" style="enable-background:new 0 0 512 512;" xml:space="preserve">
<style type="text/css">
	.st0{fill:#444444;}
</style>
<path class="st0" d="M468,104.3h-29V66c0-16.6-13.4-30-30-30H54c-16.6,0-30,13.4-30,30v221.1c0,16.6,13.4,30,30,30h17.9v69.6
	c0,9.6,5.8,17.7,14.8,20.8c2.4,0.8,4.8,1.2,7.2,1.2c6.5,0,12.8-3,17-8.4l11.6-14.9h223.9l64.8,83.2c4.3,5.4,10.5,8.4,17,8.4
	c2.4,0,4.8-0.4,7.2-1.2c9-3.1,14.8-11.2,14.8-20.8v-69.6H468c16.6,0,30-13.4,30-30V134.3C498,117.7,484.6,104.3,468,104.3z
	 M112.7,365.4l-13.1,16.8L95,388c-0.3,0.3-0.8,1-1.9,0.6c-1.3-0.4-1.3-1.5-1.3-1.9v-89.6H54c-5.5,0-10-4.5-10-10V66
	c0-5.5,4.5-10,10-10h355c5.5,0,10,4.5,10,10v221.1c0,5.5-4.5,10-10,10H165.9l-15.6,20L112.7,365.4z M478,355.4c0,5.5-4.5,10-10,10
	h-37.9V455c0,0.4,0,1.5-1.3,1.9c-1.1,0.4-1.6-0.3-1.9-0.6l-55.3-70.9l-15.6-20H138l37.6-48.3H409c16.6,0,30-13.4,30-30V124.3h29
	c5.5,0,10,4.5,10,10V355.4z"/>
<path class="st0" d="M109.3,125c-0.2,0-0.4,0-0.5,0c-9.4,0-18.2,2.6-25.7,7.1C68.7,140.9,59,156.7,59,174.8c0,18,9.6,33.8,24,42.5
	c6,3.6,12.8,6,20,6.9c1.9,0.2,3.8,0.3,5.8,0.3c27.4,0,49.7-22.3,49.7-49.7C158.5,147.5,136.5,125.3,109.3,125z M108.8,204.5
	c-2,0-3.9-0.2-5.8-0.6c-8.5-1.7-15.8-7-20-14.3c-2.5-4.4-4-9.5-4-14.9c0-5.4,1.5-10.5,4-14.9c4.2-7.3,11.5-12.6,20-14.3
	c1.9-0.4,3.8-0.6,5.8-0.6c16.4,0,29.7,13.3,29.7,29.8C138.5,191.1,125.2,204.5,108.8,204.5z"/>
<path class="st0" d="M230.8,125c-27.4,0-49.8,22.3-49.8,49.8s22.3,49.7,49.8,49.7s49.7-22.3,49.7-49.7S258.2,125,230.8,125z
	 M230.8,204.5c-16.4,0-29.8-13.3-29.8-29.7c0-16.4,13.3-29.8,29.8-29.8c16.4,0,29.7,13.3,29.7,29.8
	C260.5,191.1,247.2,204.5,230.8,204.5z"/>
<path class="st0" d="M352.8,125c-27.4,0-49.8,22.3-49.8,49.8s22.3,49.7,49.8,49.7s49.7-22.3,49.7-49.7S380.2,125,352.8,125z
	 M352.8,204.5c-16.4,0-29.8-13.3-29.8-29.7c0-16.4,13.3-29.8,29.8-29.8c16.4,0,29.7,13.3,29.7,29.8
	C382.5,191.1,369.2,204.5,352.8,204.5z"/>
</svg>
