<?xml version="1.0" encoding="utf-8"?>
<!-- Generator: Adobe Illustrator 21.1.0, SVG Export Plug-In . SVG Version: 6.00 Build 0)  -->
<svg version="1.1" id="Слой_1" xmlns="http://www.w3.org/2000/svg" xmlns:xlink="http://www.w3.org/1999/xlink" x="0px" y="0px"
	 viewBox="0 0 512 512" style="enable-background:new 0 0 512 512;" xml:space="preserve">
<style type="text/css">
	.st0{fill:#444444;}
</style>
<image style="display:none;overflow:visible;" width="512" height="512" xlink:href="1-87-512.png" >
</image>
<path class="st0" d="M321.3,38c8,0,15.5,3.1,21.2,8.8l96.7,96.7c5.7,5.7,8.8,13.2,8.8,21.2V445c0,16.5-13.5,30-30,30H95
	c-16.5,0-30-13.5-30-30V68c0-16.5,13.5-30,30-30H321.3 M321.3,18H95c-27.6,0-50,22.4-50,50v377c0,27.6,22.4,50,50,50h323
	c27.6,0,50-22.4,50-50V164.7c0-13.3-5.3-26-14.6-35.4l-96.7-96.7C347.3,23.3,334.6,18,321.3,18L321.3,18z"/>
<path class="st0" d="M414,172h-64c-24.8,0-45-20.2-45-45V63h20v64c0,13.8,11.2,25,25,25h64V172z"/>
<path class="st0" d="M304.2,444.6c-33.7,0-63.1-6.5-89-19.7c-22.3,7.8-45,10.6-67.4,8.6c-5.7-0.5-11.1-3-15.2-7
	c-32.2-31.4-18.3-94.8-1.8-119.9c0,0,0,0,0,0c4.3-6.6,11.6-10.7,19.6-11.2c16.3-0.9,37,2,64.9,9.2c28.7-11.9,53-45.8,72.2-100.8
	c1.7-4.9,6.8-7.6,11.9-6.4c20.6,5.1,35.5,17.8,41,34.8c4.6,14.2,2.3,30.1-6.4,45.9h35c11.4,0,21.4,7,26.1,18.4
	c5.1,12.2,3.1,26.3-4.9,37.7c1.6,4.7,1.6,10-0.1,15.5c-1.4,4.4-4,9.2-7.5,13c2.2,5.3,2.9,11.1,2,17c-1.3,8.2-5.7,15.4-12.7,20.8
	c1.1,6.3,0.1,12.8-2.8,19.1c-4.1,8.8-11.9,16.2-22.6,21.6c-1,0.5-2.1,0.8-3.2,1C329.6,443.7,316.6,444.6,304.2,444.6z M215.2,404.9
	c3.1,0,6.2,0.7,9,2.1C255.6,423,293.2,428,339,422.3c10.9-5.9,15.7-14.6,12.1-21.8c-2.5-4.9-0.5-10.9,4.5-13.4
	c5.3-2.7,8.5-6.4,9.2-10.7c0.6-3.4-0.5-6.9-2.8-9.2c-2.6-2.6-3.6-6.5-2.5-10.1c1-3.3,3.7-5.8,7-6.7c1.4-1,4.3-4.7,4.8-8.2
	c0.2-1.5-0.2-1.8-0.3-2c-3.9-3.9-3.9-10.2,0-14.1c7.7-7.7,7.9-16.6,5.7-21.9c-0.8-1.8-3-6-7.6-6h-54c-3.9,0-7.4-2.3-9.1-5.8
	s-1.1-7.7,1.4-10.7c13.1-15.6,18.1-31,14.1-43.3c-2.6-8.1-9-14.6-18.3-18.7c-21,55.9-47.2,89.8-80,103.4c-4,1.6-8.5,2-12.7,0.9
	c-25.9-6.6-44.6-9.4-58.8-8.6c-1.6,0.1-3.1,0.9-3.9,2.2c-6.1,9.2-12.8,27.5-14.1,47.6c-0.8,12-0.2,34,13.2,47.1
	c0.8,0.8,1.9,1.3,3,1.4c19.5,1.8,39.4-0.8,59-7.6C210.8,405.3,213,404.9,215.2,404.9z M367.2,350.2
	C367.2,350.2,367.2,350.2,367.2,350.2C367.2,350.2,367.2,350.2,367.2,350.2z"/>
</svg>
