<?xml version="1.0" encoding="utf-8"?>
<!-- Generator: Adobe Illustrator 21.1.0, SVG Export Plug-In . SVG Version: 6.00 Build 0)  -->
<svg version="1.1" id="Слой_1" xmlns="http://www.w3.org/2000/svg" xmlns:xlink="http://www.w3.org/1999/xlink" x="0px" y="0px"
	 viewBox="0 0 512 512" style="enable-background:new 0 0 512 512;" xml:space="preserve">
<style type="text/css">
	.st0{fill:#444444;}
</style>
<path class="st0" d="M500.1,207.4c-1.9-6.4-6.1-11.7-11.9-15l-7.5-4.2c-1.2-0.7-2.1-1.7-2.5-3c-17.9-53.9-47.5-98.3-85.6-128.3
	c-35.6-28-77.9-43.5-122.5-44.7c-46.8-1.3-92.8,12.9-133.1,41c-42.3,29.6-75.8,73.2-96.7,126.2c-0.5,1.2-1.4,2.2-2.6,2.8l-8.2,4.2
	c-4.8,2.5-8.6,6.3-11,11.1C11,212.3,7.8,234.9,10,257.8c1.3,14.4,6,41,22.2,57.8c5.6,5.8,13.7,8.6,21.8,7.5l25.8-3.5
	c5.5-0.8,9.3-5.8,8.5-11.3c-0.8-5.5-5.8-9.3-11.3-8.5l-25.8,3.6c-1.7,0.2-3.5-0.3-4.6-1.5c-8.6-8.9-14.9-26-16.7-45.8
	c-1.8-19,0.7-37.9,6.5-49.4c0.5-1,1.3-1.9,2.4-2.4l8.2-4.2c5.5-2.8,9.7-7.5,12-13.3c38-96.4,120.7-157,210.6-154.5
	c86.5,2.4,157.4,62,189.7,159.3c2,6,6.1,11.1,11.7,14.2l7.5,4.2c1.3,0.7,2.2,1.8,2.5,3.1c7.5,25.8,2.3,69.8-10.4,88.8
	c-0.9,1.4-2.6,2.2-4.4,2.2h-50.9c-10.5,0-20,6.6-23.8,16.3l-16.9,43.9c-0.8,2.1-2.9,3.5-5.1,3.5h-33v-0.1c0-12.1-9.9-22-22-22h-74
	c-12.1,0-22,9.9-22,22v44c0,12.1,9.9,22,22,22h74c12.1,0,22-9.9,22-22v-23.9h33c10.5,0,20-6.6,23.8-16.3l16.9-43.9
	c0.8-2.1,2.9-3.5,5.1-3.5h50.9c8.5,0,16.4-4.2,21-11.1C504.6,287,508.4,235.8,500.1,207.4z M316.3,411.7c0,1.1-0.9,2-2,2h-74
	c-1.1,0-2-0.9-2-2v-44c0-1.1,0.9-2,2-2h74c1.1,0,2,0.9,2,2V411.7z"/>
<path class="st0" d="M249,500.9c-20.6,0-42.1-5.9-61.2-22.3c-54.9-47.3-72.9-127-86.7-204.5c-4.9-27.5-2.9-54.5,5.9-80.2
	c11.3-33.1,35.1-60,67-75.9c30.6-15.2,79.7-30.1,139.5-14c44,11.8,75.6,42.1,91.4,87.5c11.7,33.7,10.7,63.6,10.6,64.9
	c-0.2,5.5-4.9,9.8-10.4,9.6c-5.5-0.2-9.8-4.9-9.6-10.4c0-0.3,0.9-28-9.7-58.1c-13.8-39.2-39.9-64.1-77.5-74.2
	c-53.8-14.4-97.9-1.1-125.4,12.6c-27.1,13.5-47.4,36.4-57,64.5c-7.7,22.5-9.4,46.1-5.2,70.2c13.1,74,30.1,149.8,80,192.8
	c19.8,17.1,45,21.7,74.9,13.9c25.7-6.7,43.8-20,46.4-22.9c3.6-4.2,10-4.6,14.1-0.9c4.2,3.6,4.6,10,0.9,14.1
	C329.3,476.6,290.9,500.9,249,500.9z"/>
<path class="st0" d="M167.3,270.7c-4.9,0-9.9-0.1-14.8-0.4c-5.5-0.3-9.8-4.9-9.5-10.5c0.3-5.5,4.9-9.8,10.5-9.5
	c56.3,2.7,109-11,161-41.9c6.6-3.9,15.2-1.7,19.1,4.9c8.4,14.1,18.8,23.6,32,29.1c5.1,2.1,7.5,8,5.4,13.1c-2.1,5.1-8,7.5-13.1,5.4
	c-15.3-6.4-28.1-17.2-38.2-32.3C270.3,256.9,220.3,270.7,167.3,270.7z"/>
</svg>
