<?xml version="1.0" encoding="utf-8"?>
<!-- Generator: Adobe Illustrator 21.1.0, SVG Export Plug-In . SVG Version: 6.00 Build 0)  -->
<svg version="1.1" id="Слой_1" xmlns="http://www.w3.org/2000/svg" xmlns:xlink="http://www.w3.org/1999/xlink" x="0px" y="0px"
	 viewBox="0 0 512 512" style="enable-background:new 0 0 512 512;" xml:space="preserve">
<style type="text/css">
	.st0{fill:#444444;}
</style>
<image style="display:none;overflow:visible;" width="512" height="512" xlink:href="1-76-512.png"  transform="matrix(1 0 0 1 7.5698 0)">
</image>
<path class="st0" d="M447,27H39C22.5,27,9,40.5,9,57v309c0,16.5,13.5,30,30,30h202.2c-2.1-6.5-3.8-13.2-5-20H39c-5.4,0-10-4.6-10-10
	V57c0-5.4,4.6-10,10-10h408c5.4,0,10,4.6,10,10v173.6c7.1,4.7,13.8,10,20,15.9V57C477,40.5,463.5,27,447,27z"/>
<path class="st0" d="M141,144H75c-6.6,0-12,5.4-12,12v48c0,6.6,5.4,12,12,12h66c6.6,0,12-5.4,12-12v-48C153,149.4,147.6,144,141,144
	z M133,196H83v-32h50V196z"/>
<path class="st0" d="M276,144h-66c-6.6,0-12,5.4-12,12v48c0,6.6,5.4,12,12,12h66c6.6,0,12-5.4,12-12v-48
	C288,149.4,282.6,144,276,144z M268,196h-50v-32h50V196z"/>
<path class="st0" d="M402,144h-66c-6.6,0-12,5.4-12,12v48c0,4.8,2.8,9,6.9,10.9c1.5,0.7,3.3,1.1,5.1,1.1h66c4,0,7.6-2,9.8-5
	c1.4-2,2.3-4.4,2.3-7v-48C414,149.4,408.6,144,402,144z M344,164h50v32h-50V164z"/>
<path class="st0" d="M141,261H75c-6.6,0-12,5.4-12,12v48c0,6.6,5.4,12,12,12h66c6.6,0,12-5.4,12-12v-48C153,266.4,147.6,261,141,261
	z M133,313H83v-32h50V313z"/>
<path class="st0" d="M252.1,281c3.9-7,8.4-13.7,13.5-20H210c-6.6,0-12,5.4-12,12v48c0,6.6,5.4,12,12,12h25.1c0.8-6.8,2.2-13.5,4-20
	H218v-32H252.1z"/>
<path class="st0" d="M121.5,72C114,72,108,78,108,85.5S114,99,121.5,99S135,93,135,85.5S129,72,121.5,72L121.5,72z"/>
<path class="st0" d="M184.5,72C177,72,171,78,171,85.5S177,99,184.5,99S198,93,198,85.5S192,72,184.5,72L184.5,72z"/>
<path class="st0" d="M238.5,72C231,72,225,78,225,85.5S231,99,238.5,99S252,93,252,85.5S246,72,238.5,72L238.5,72z"/>
<path class="st0" d="M301.5,72C294,72,288,78,288,85.5S294,99,301.5,99S315,93,315,85.5S309,72,301.5,72L301.5,72z"/>
<path class="st0" d="M355.5,72C348,72,342,78,342,85.5S348,99,355.5,99S369,93,369,85.5S363,72,355.5,72L355.5,72z"/>
<circle class="st0" cx="355.5" cy="247.5" r="13.5"/>
<circle class="st0" cx="301.5" cy="283.5" r="13.5"/>
<circle class="st0" cx="274.5" cy="346.5" r="13.5"/>
<circle class="st0" cx="283.5" cy="409.5" r="13.5"/>
<path class="st0" d="M453.9,342.2l-49.3,21.1c-1.5,8.4-8.9,14.7-17.7,14.7c-9.9,0-18-8.1-18-18s8.1-18,18-18c3.6,0,7,1.1,9.8,2.9
	l49.3-21.1c5.1-2.2,11,0.2,13.1,5.3C461.4,334.1,459,340,453.9,342.2z"/>
<path class="st0" d="M507.8,360c0,70-57,127-127,127c-10.8,0-21.5-1.4-31.8-4.1l-3.1,5c-2.9,4.6-9.6,4.4-12.1-0.4L327,475
	l-12.1-22.5c-1.4-2.7-1-5.6,0.7-7.7c1.4-1.8,3.6-2.8,6.1-2.6l38.4,3.6c5.2,0.5,8,6.3,5.3,10.7l-5.3,8.5c6.8,1.3,13.7,2,20.6,2
	c59,0,107-48,107-107c0-52.3-38.9-97.8-90.5-105.7l3-19.8c29.7,4.6,56.8,19.7,76.6,42.5C496.8,300,507.8,329.5,507.8,360z"/>
</svg>
