<?xml version="1.0" encoding="utf-8"?>
<!-- Generator: Adobe Illustrator 21.1.0, SVG Export Plug-In . SVG Version: 6.00 Build 0)  -->
<svg version="1.1" id="Слой_1" xmlns="http://www.w3.org/2000/svg" xmlns:xlink="http://www.w3.org/1999/xlink" x="0px" y="0px"
	 viewBox="0 0 512 512" style="enable-background:new 0 0 512 512;" xml:space="preserve">
<style type="text/css">
	.st0{fill:#444444;}
</style>
<path class="st0" d="M359,29c9.3,0,18.1,3.7,24.7,10.3C390.3,45.9,394,54.7,394,64v385c0,9.3-3.7,18.1-10.3,24.7
	c-6.6,6.6-15.4,10.3-24.7,10.3H154c-9.3,0-18.1-3.7-24.7-10.3c-6.6-6.6-10.3-15.4-10.3-24.7V64c0-9.3,3.7-18.1,10.3-24.7
	C135.9,32.7,144.7,29,154,29H359 M359,9H154c-30.3,0-55,24.8-55,55v385c0,30.3,24.8,55,55,55h205c30.3,0,55-24.8,55-55V64
	C414,33.8,389.3,9,359,9L359,9z"/>
<path class="st0" d="M288,82h-72c-5.5,0-10-4.5-10-10s4.5-10,10-10h72c5.5,0,10,4.5,10,10S293.5,82,288,82z"/>
<rect x="117" y="404" class="st0" width="288" height="20"/>
<path class="st0" d="M256.5,441c-7.5,0-13.5,6-13.5,13.5s6,13.5,13.5,13.5s13.5-6,13.5-13.5S264,441,256.5,441L256.5,441z"/>
</svg>
