<?xml version="1.0" encoding="utf-8"?>
<!-- Generator: Adobe Illustrator 21.1.0, SVG Export Plug-In . SVG Version: 6.00 Build 0)  -->
<svg version="1.1" id="Слой_1" xmlns="http://www.w3.org/2000/svg" xmlns:xlink="http://www.w3.org/1999/xlink" x="0px" y="0px"
	 viewBox="0 0 512 512" style="enable-background:new 0 0 512 512;" xml:space="preserve">
<style type="text/css">
	.st0{fill:#444444;}
</style>
<image style="display:none;overflow:visible;" width="512" height="512" xlink:href="1-14-512.png" >
</image>
<path class="st0" d="M187.8,350.2c-6.8,0.6-13.4,2.1-19.5,4.6L99.8,98L15.1,72.6C9.8,71,6.8,65.4,8.4,60.1c1.6-5.3,7.2-8.3,12.5-6.7
	L116.2,82L187.8,350.2z"/>
<path class="st0" d="M502.7,351.5c-4.9-19.8-25.1-31.9-44.9-26.9L248,377c4.2,5.5,7.5,11.6,9.9,18.2L462.6,344
	c1.4-0.3,2.8-0.5,4.1-0.5c7.6,0,14.6,5.2,16.5,12.9c2.3,9.1-3.3,18.3-12.4,20.6l-209.8,52.4c-1.3,8.1-4,15.7-7.9,22.6l222.5-55.6
	C495.5,391.5,507.6,371.3,502.7,351.5z"/>
<path class="st0" d="M198,460c-25.4,0-46-20.6-46-46s20.6-46,46-46s46,20.6,46,46S223.4,460,198,460z M198,388
	c-14.3,0-26,11.7-26,26s11.7,26,26,26s26-11.7,26-26S212.3,388,198,388z"/>
<path class="st0" d="M429.3,282l-43-173.9c-1.6-6.5-5.6-12-11.3-15.4c-5.7-3.5-12.4-4.5-18.9-2.9l-45.9,11.3l-19.4,4.8l4.8,19.4
	l5.6,22.8l-35.7,8.8l-5.6-22.8l-4.8-19.4l-19.4,4.8l-46.2,11.4c-13.4,3.3-21.6,16.9-18.3,30.3l43,173.9c1.6,6.5,5.6,12,11.4,15.4
	c3.9,2.4,8.4,3.6,12.9,3.6c2,0,4-0.3,6-0.7L411,312.3C424.4,309,432.6,295.4,429.3,282z M406.3,292.9l-166.5,41.2
	c-1.8,0.4-3.1-0.2-3.8-0.6c-0.7-0.4-1.8-1.3-2.3-3.1l-43-173.9c-0.4-1.8,0.2-3.1,0.6-3.8c0.4-0.7,1.3-1.8,3.1-2.3l46.2-11.4
	l10.4,42.2l74.5-18.4L315,120.6l45.9-11.4c0.4-0.1,0.8-0.1,1.2-0.1c1.2,0,2.1,0.4,2.6,0.7c0.7,0.4,1.8,1.3,2.3,3.1l43,173.9
	c0.1,0.4,0.1,0.8,0.1,1.2C410,290.3,408.5,292.3,406.3,292.9z"/>
</svg>
